<?xml version="1.0" standalone="no"?>
<!DOCTYPE svg PUBLIC "-//W3C//DTD SVG 20010904//EN"
 "http://www.w3.org/TR/2001/REC-SVG-20010904/DTD/svg10.dtd">
<svg version="1.0" xmlns="http://www.w3.org/2000/svg"
 width="700.000000pt" height="700.000000pt" viewBox="0 0 700.000000 700.000000"
 preserveAspectRatio="xMidYMid meet">
<metadata>
Created by potrace 1.14, written by Peter Selinger 2001-2017
</metadata>
<g transform="translate(0.000000,700.000000) scale(0.100000,-0.100000)"
fill="#000000" stroke="none">
<path d="M3377 6404 c-1 -1 -49 -5 -106 -9 -57 -3 -113 -8 -125 -11 -11 -2
-41 -6 -66 -9 -25 -3 -56 -7 -70 -10 -14 -3 -36 -7 -50 -10 -370 -69 -771
-232 -1060 -429 -64 -43 -184 -129 -190 -136 -3 -3 -34 -29 -70 -59 -140 -115
-316 -296 -431 -447 -62 -80 -179 -249 -179 -258 0 -3 -13 -24 -29 -48 -45
-67 -148 -278 -202 -413 -66 -169 -109 -319 -155 -540 -25 -124 -46 -346 -47
-510 0 -89 12 -325 18 -335 1 -3 6 -34 9 -70 6 -54 22 -143 52 -285 11 -52 67
-239 95 -315 84 -231 203 -461 342 -663 l61 -87 602 602 602 602 -14 27 c-22
44 -72 200 -83 264 -6 33 -13 76 -17 95 -3 19 -6 89 -6 155 0 106 6 151 38
312 10 49 66 196 100 260 297 559 962 810 1549 584 44 -17 84 -31 90 -31 5 0
279 269 607 598 l597 597 -55 40 c-360 262 -844 456 -1274 510 -30 4 -62 9
-70 10 -65 12 -452 28 -463 19z"/>
<path d="M5224 4637 l-601 -602 25 -60 c13 -33 28 -69 33 -80 8 -21 40 -149
44 -175 1 -8 5 -35 9 -60 30 -200 -3 -441 -87 -640 -165 -393 -516 -674 -932
-746 -128 -23 -326 -22 -430 0 -122 26 -211 54 -267 82 -15 8 -34 14 -43 14
-9 0 -283 -267 -610 -594 -567 -567 -621 -626 -573 -626 5 0 26 -13 46 -29 81
-65 304 -192 476 -271 223 -103 544 -196 775 -225 30 -4 61 -8 70 -10 122 -23
515 -23 685 1 17 2 54 7 81 10 28 4 53 8 56 10 3 1 28 6 55 10 27 3 59 10 71
15 13 5 23 7 23 5 0 -2 42 7 93 20 50 14 99 26 107 29 48 12 258 89 335 122
564 246 1050 682 1353 1215 179 316 303 670 352 1003 6 44 13 91 15 105 22
136 22 560 1 676 -2 11 -7 44 -11 74 -6 46 -37 214 -50 270 -57 243 -175 539
-306 766 -40 70 -187 294 -192 294 -1 0 -273 -272 -603 -603z"/>
</g>
</svg>
